<mxfile host="app.diagrams.net" agent="Mozilla/5.0 (Windows NT 10.0; Win64; x64) AppleWebKit/537.36 (KHTML, like Gecko) Chrome/135.0.0.0 Safari/537.36" version="26.1.3">
  <diagram name="第 1 页" id="d42diul6fslSMjpvICGW">
    <mxGraphModel dx="1327" dy="249" grid="1" gridSize="10" guides="1" tooltips="1" connect="1" arrows="1" fold="1" page="1" pageScale="1" pageWidth="827" pageHeight="1169" math="0" shadow="0">
      <root>
        <mxCell id="0" />
        <mxCell id="1" parent="0" />
        <mxCell id="kBZi92GW0X4leDiOaX-m-14" style="edgeStyle=orthogonalEdgeStyle;rounded=0;orthogonalLoop=1;jettySize=auto;html=1;entryX=0.5;entryY=0;entryDx=0;entryDy=0;" parent="1" source="kBZi92GW0X4leDiOaX-m-1" target="kBZi92GW0X4leDiOaX-m-11" edge="1">
          <mxGeometry relative="1" as="geometry">
            <Array as="points">
              <mxPoint x="298" y="300" />
              <mxPoint x="175" y="300" />
            </Array>
          </mxGeometry>
        </mxCell>
        <mxCell id="kBZi92GW0X4leDiOaX-m-16" style="edgeStyle=orthogonalEdgeStyle;rounded=0;orthogonalLoop=1;jettySize=auto;html=1;entryX=0.5;entryY=0;entryDx=0;entryDy=0;" parent="1" source="kBZi92GW0X4leDiOaX-m-1" target="kBZi92GW0X4leDiOaX-m-12" edge="1">
          <mxGeometry relative="1" as="geometry" />
        </mxCell>
        <mxCell id="kBZi92GW0X4leDiOaX-m-17" style="edgeStyle=orthogonalEdgeStyle;rounded=0;orthogonalLoop=1;jettySize=auto;html=1;entryX=0.5;entryY=0;entryDx=0;entryDy=0;" parent="1" source="kBZi92GW0X4leDiOaX-m-1" target="kBZi92GW0X4leDiOaX-m-13" edge="1">
          <mxGeometry relative="1" as="geometry" />
        </mxCell>
        <mxCell id="kBZi92GW0X4leDiOaX-m-1" value="对象头" style="rounded=1;whiteSpace=wrap;html=1;" parent="1" vertex="1">
          <mxGeometry x="260" y="230" width="76" height="40" as="geometry" />
        </mxCell>
        <mxCell id="kBZi92GW0X4leDiOaX-m-6" style="edgeStyle=orthogonalEdgeStyle;rounded=0;orthogonalLoop=1;jettySize=auto;html=1;entryX=0.5;entryY=0;entryDx=0;entryDy=0;" parent="1" source="kBZi92GW0X4leDiOaX-m-2" target="kBZi92GW0X4leDiOaX-m-1" edge="1">
          <mxGeometry relative="1" as="geometry">
            <Array as="points">
              <mxPoint x="396" y="200" />
              <mxPoint x="298" y="200" />
            </Array>
          </mxGeometry>
        </mxCell>
        <mxCell id="kBZi92GW0X4leDiOaX-m-9" style="edgeStyle=orthogonalEdgeStyle;rounded=0;orthogonalLoop=1;jettySize=auto;html=1;entryX=0.5;entryY=0;entryDx=0;entryDy=0;" parent="1" source="kBZi92GW0X4leDiOaX-m-2" target="kBZi92GW0X4leDiOaX-m-4" edge="1">
          <mxGeometry relative="1" as="geometry">
            <Array as="points">
              <mxPoint x="396" y="200" />
              <mxPoint x="498" y="200" />
            </Array>
          </mxGeometry>
        </mxCell>
        <mxCell id="kBZi92GW0X4leDiOaX-m-2" value="Java创建一个对象" style="text;html=1;align=center;verticalAlign=middle;resizable=0;points=[];autosize=1;strokeColor=default;fillColor=none;" parent="1" vertex="1">
          <mxGeometry x="336" y="150" width="120" height="30" as="geometry" />
        </mxCell>
        <mxCell id="94ZjhFRLN0g3IMUn2Bpj-19" style="edgeStyle=orthogonalEdgeStyle;rounded=0;orthogonalLoop=1;jettySize=auto;html=1;entryX=0;entryY=0.5;entryDx=0;entryDy=0;" parent="1" source="kBZi92GW0X4leDiOaX-m-3" target="94ZjhFRLN0g3IMUn2Bpj-20" edge="1">
          <mxGeometry relative="1" as="geometry">
            <mxPoint x="610" y="400" as="targetPoint" />
            <Array as="points">
              <mxPoint x="398" y="300" />
              <mxPoint x="550" y="300" />
              <mxPoint x="550" y="400" />
            </Array>
          </mxGeometry>
        </mxCell>
        <mxCell id="kBZi92GW0X4leDiOaX-m-3" value="实例数据" style="rounded=1;whiteSpace=wrap;html=1;" parent="1" vertex="1">
          <mxGeometry x="360" y="230" width="76" height="40" as="geometry" />
        </mxCell>
        <mxCell id="94ZjhFRLN0g3IMUn2Bpj-23" style="edgeStyle=orthogonalEdgeStyle;rounded=0;orthogonalLoop=1;jettySize=auto;html=1;entryX=0.499;entryY=0.048;entryDx=0;entryDy=0;entryPerimeter=0;" parent="1" source="kBZi92GW0X4leDiOaX-m-4" target="94ZjhFRLN0g3IMUn2Bpj-24" edge="1">
          <mxGeometry relative="1" as="geometry">
            <mxPoint x="760" y="280" as="targetPoint" />
          </mxGeometry>
        </mxCell>
        <mxCell id="kBZi92GW0X4leDiOaX-m-4" value="对齐填充字节" style="rounded=1;whiteSpace=wrap;html=1;" parent="1" vertex="1">
          <mxGeometry x="460" y="230" width="76" height="40" as="geometry" />
        </mxCell>
        <mxCell id="kBZi92GW0X4leDiOaX-m-7" style="edgeStyle=orthogonalEdgeStyle;rounded=0;orthogonalLoop=1;jettySize=auto;html=1;entryX=0.474;entryY=0;entryDx=0;entryDy=0;entryPerimeter=0;" parent="1" source="kBZi92GW0X4leDiOaX-m-2" target="kBZi92GW0X4leDiOaX-m-3" edge="1">
          <mxGeometry relative="1" as="geometry" />
        </mxCell>
        <mxCell id="kBZi92GW0X4leDiOaX-m-32" style="edgeStyle=orthogonalEdgeStyle;rounded=0;orthogonalLoop=1;jettySize=auto;html=1;entryX=1;entryY=0.5;entryDx=0;entryDy=0;" parent="1" source="kBZi92GW0X4leDiOaX-m-11" target="kBZi92GW0X4leDiOaX-m-30" edge="1">
          <mxGeometry relative="1" as="geometry">
            <Array as="points">
              <mxPoint x="120" y="345" />
              <mxPoint x="120" y="440" />
            </Array>
          </mxGeometry>
        </mxCell>
        <mxCell id="kBZi92GW0X4leDiOaX-m-11" value="mark word" style="rounded=1;whiteSpace=wrap;html=1;" parent="1" vertex="1">
          <mxGeometry x="150" y="330" width="50" height="30" as="geometry" />
        </mxCell>
        <mxCell id="94ZjhFRLN0g3IMUn2Bpj-13" style="edgeStyle=orthogonalEdgeStyle;rounded=0;orthogonalLoop=1;jettySize=auto;html=1;entryX=0;entryY=0.5;entryDx=0;entryDy=0;" parent="1" source="kBZi92GW0X4leDiOaX-m-12" target="kBZi92GW0X4leDiOaX-m-19" edge="1">
          <mxGeometry relative="1" as="geometry">
            <Array as="points">
              <mxPoint x="245" y="474" />
              <mxPoint x="310" y="474" />
            </Array>
          </mxGeometry>
        </mxCell>
        <mxCell id="kBZi92GW0X4leDiOaX-m-12" value="&lt;font style=&quot;font-size: 9px;&quot;&gt;指向类信息指针&lt;/font&gt;&lt;div&gt;&lt;font style=&quot;font-size: 9px;&quot;&gt;Klass Pointer&lt;br&gt;&lt;/font&gt;&lt;/div&gt;" style="rounded=1;whiteSpace=wrap;html=1;" parent="1" vertex="1">
          <mxGeometry x="220" y="330" width="50" height="60" as="geometry" />
        </mxCell>
        <mxCell id="kBZi92GW0X4leDiOaX-m-34" value="" style="edgeStyle=orthogonalEdgeStyle;rounded=0;orthogonalLoop=1;jettySize=auto;html=1;" parent="1" source="kBZi92GW0X4leDiOaX-m-13" target="kBZi92GW0X4leDiOaX-m-33" edge="1">
          <mxGeometry relative="1" as="geometry" />
        </mxCell>
        <mxCell id="kBZi92GW0X4leDiOaX-m-13" value="数组长度" style="rounded=1;whiteSpace=wrap;html=1;" parent="1" vertex="1">
          <mxGeometry x="286" y="330" width="50" height="30" as="geometry" />
        </mxCell>
        <mxCell id="kBZi92GW0X4leDiOaX-m-19" value="&lt;span style=&quot;color: rgb(10, 10, 10); font-family: &amp;quot;Helvetica Neue&amp;quot;, BlinkMacSystemFont, &amp;quot;Segoe UI&amp;quot;, &amp;quot;PingFang SC&amp;quot;, Roboto, &amp;quot;Microsoft YaHei&amp;quot;, &amp;quot;Source Han Sans SC&amp;quot;, &amp;quot;Noto Sans CJK SC&amp;quot;, &amp;quot;Myriad Pro&amp;quot;, &amp;quot;Hiragino Sans&amp;quot;, &amp;quot;Yu Gothic&amp;quot;, &amp;quot;Lucida Grande&amp;quot;, sans-serif; font-size: 14px; text-align: start; white-space-collapse: preserve; background-color: rgb(255, 255, 255);&quot;&gt;类的元数据信息&lt;/span&gt;" style="rounded=0;whiteSpace=wrap;html=1;" parent="1" vertex="1">
          <mxGeometry x="350" y="443.53" width="120" height="60" as="geometry" />
        </mxCell>
        <mxCell id="kBZi92GW0X4leDiOaX-m-23" style="edgeStyle=orthogonalEdgeStyle;rounded=0;orthogonalLoop=1;jettySize=auto;html=1;entryX=0;entryY=0.5;entryDx=0;entryDy=0;" parent="1" source="kBZi92GW0X4leDiOaX-m-22" target="kBZi92GW0X4leDiOaX-m-11" edge="1">
          <mxGeometry relative="1" as="geometry" />
        </mxCell>
        <mxCell id="kBZi92GW0X4leDiOaX-m-22" value="&lt;span style=&quot;color: rgb(0, 0, 0); font-family: Helvetica; font-style: normal; font-variant-ligatures: normal; font-variant-caps: normal; font-weight: 400; letter-spacing: normal; orphans: 2; text-indent: 0px; text-transform: none; widows: 2; word-spacing: 0px; -webkit-text-stroke-width: 0px; white-space: nowrap; background-color: rgb(255, 255, 255); text-decoration-thickness: initial; text-decoration-style: initial; text-decoration-color: initial; float: none; display: inline !important;&quot;&gt;&lt;font&gt;它主要用来存储对象自身的运行时数据&lt;/font&gt;&lt;/span&gt;" style="text;whiteSpace=wrap;html=1;align=center;" parent="1" vertex="1">
          <mxGeometry x="-130" y="280" width="220" height="20" as="geometry" />
        </mxCell>
        <mxCell id="kBZi92GW0X4leDiOaX-m-33" value="除非是数组对象才有数组长度" style="rounded=1;whiteSpace=wrap;html=1;" parent="1" vertex="1">
          <mxGeometry x="364" y="310" width="50" height="70" as="geometry" />
        </mxCell>
        <mxCell id="94ZjhFRLN0g3IMUn2Bpj-3" value="偏向锁" style="whiteSpace=wrap;html=1;" parent="1" vertex="1">
          <mxGeometry x="-240" y="550" width="80" height="30" as="geometry" />
        </mxCell>
        <mxCell id="94ZjhFRLN0g3IMUn2Bpj-4" value="轻量级锁" style="whiteSpace=wrap;html=1;" parent="1" vertex="1">
          <mxGeometry x="-140" y="550" width="80" height="30" as="geometry" />
        </mxCell>
        <mxCell id="94ZjhFRLN0g3IMUn2Bpj-5" value="重量级锁" style="whiteSpace=wrap;html=1;" parent="1" vertex="1">
          <mxGeometry x="-40" y="550" width="80" height="30" as="geometry" />
        </mxCell>
        <mxCell id="94ZjhFRLN0g3IMUn2Bpj-8" value="&lt;span style=&quot;text-wrap: nowrap; background-color: rgb(255, 255, 255);&quot;&gt;&lt;font style=&quot;font-size: 7px;&quot;&gt;在年轻代经历了多少次Minor GC&lt;/font&gt;&lt;/span&gt;" style="whiteSpace=wrap;html=1;" parent="1" vertex="1">
          <mxGeometry x="110" y="535" width="120" height="60" as="geometry" />
        </mxCell>
        <mxCell id="94ZjhFRLN0g3IMUn2Bpj-6" style="edgeStyle=orthogonalEdgeStyle;rounded=0;orthogonalLoop=1;jettySize=auto;html=1;entryX=0.5;entryY=0;entryDx=0;entryDy=0;" parent="1" source="kBZi92GW0X4leDiOaX-m-28" target="94ZjhFRLN0g3IMUn2Bpj-8" edge="1">
          <mxGeometry relative="1" as="geometry">
            <mxPoint x="170" y="530" as="targetPoint" />
          </mxGeometry>
        </mxCell>
        <mxCell id="kBZi92GW0X4leDiOaX-m-30" value="" style="whiteSpace=wrap;html=1;" parent="1" vertex="1">
          <mxGeometry x="-110" y="380" width="210" height="120" as="geometry" />
        </mxCell>
        <mxCell id="kBZi92GW0X4leDiOaX-m-18" value="&lt;span style=&quot;color: rgb(10, 10, 10); font-family: &amp;quot;Helvetica Neue&amp;quot;, BlinkMacSystemFont, &amp;quot;Segoe UI&amp;quot;, &amp;quot;PingFang SC&amp;quot;, Roboto, &amp;quot;Microsoft YaHei&amp;quot;, &amp;quot;Source Han Sans SC&amp;quot;, &amp;quot;Noto Sans CJK SC&amp;quot;, &amp;quot;Myriad Pro&amp;quot;, &amp;quot;Hiragino Sans&amp;quot;, &amp;quot;Yu Gothic&amp;quot;, &amp;quot;Lucida Grande&amp;quot;, sans-serif; text-align: start; white-space-collapse: preserve; background-color: rgb(255, 255, 255);&quot;&gt;&lt;font style=&quot;font-size: 11px;&quot;&gt;哈希码（个人ID）&lt;/font&gt;&lt;/span&gt;" style="rounded=0;whiteSpace=wrap;html=1;" parent="1" vertex="1">
          <mxGeometry x="-102.5" y="387.06" width="92.5" height="42.94" as="geometry" />
        </mxCell>
        <mxCell id="kBZi92GW0X4leDiOaX-m-24" value="&lt;span style=&quot;color: rgb(10, 10, 10); font-family: &amp;quot;Helvetica Neue&amp;quot;, BlinkMacSystemFont, &amp;quot;Segoe UI&amp;quot;, &amp;quot;PingFang SC&amp;quot;, Roboto, &amp;quot;Microsoft YaHei&amp;quot;, &amp;quot;Source Han Sans SC&amp;quot;, &amp;quot;Noto Sans CJK SC&amp;quot;, &amp;quot;Myriad Pro&amp;quot;, &amp;quot;Hiragino Sans&amp;quot;, &amp;quot;Yu Gothic&amp;quot;, &amp;quot;Lucida Grande&amp;quot;, sans-serif; text-align: start; white-space-collapse: preserve; background-color: rgb(255, 255, 255);&quot;&gt;&lt;font style=&quot;font-size: 11px;&quot;&gt;GC相关信息（是否标记为回收）&lt;/font&gt;&lt;/span&gt;" style="whiteSpace=wrap;html=1;" parent="1" vertex="1">
          <mxGeometry x="2.5" y="387.06" width="90" height="42.94" as="geometry" />
        </mxCell>
        <mxCell id="94ZjhFRLN0g3IMUn2Bpj-10" style="edgeStyle=orthogonalEdgeStyle;rounded=0;orthogonalLoop=1;jettySize=auto;html=1;entryX=0.5;entryY=0;entryDx=0;entryDy=0;" parent="1" source="kBZi92GW0X4leDiOaX-m-27" target="94ZjhFRLN0g3IMUn2Bpj-3" edge="1">
          <mxGeometry relative="1" as="geometry">
            <Array as="points">
              <mxPoint x="-58" y="518" />
              <mxPoint x="-200" y="518" />
            </Array>
          </mxGeometry>
        </mxCell>
        <mxCell id="94ZjhFRLN0g3IMUn2Bpj-11" style="edgeStyle=orthogonalEdgeStyle;rounded=0;orthogonalLoop=1;jettySize=auto;html=1;entryX=0.5;entryY=0;entryDx=0;entryDy=0;" parent="1" source="kBZi92GW0X4leDiOaX-m-27" target="94ZjhFRLN0g3IMUn2Bpj-4" edge="1">
          <mxGeometry relative="1" as="geometry" />
        </mxCell>
        <mxCell id="94ZjhFRLN0g3IMUn2Bpj-12" style="edgeStyle=orthogonalEdgeStyle;rounded=0;orthogonalLoop=1;jettySize=auto;html=1;entryX=0.5;entryY=0;entryDx=0;entryDy=0;" parent="1" source="kBZi92GW0X4leDiOaX-m-27" target="94ZjhFRLN0g3IMUn2Bpj-5" edge="1">
          <mxGeometry relative="1" as="geometry" />
        </mxCell>
        <mxCell id="kBZi92GW0X4leDiOaX-m-27" value="&lt;span style=&quot;color: rgb(10, 10, 10); font-family: &amp;quot;Helvetica Neue&amp;quot;, BlinkMacSystemFont, &amp;quot;Segoe UI&amp;quot;, &amp;quot;PingFang SC&amp;quot;, Roboto, &amp;quot;Microsoft YaHei&amp;quot;, &amp;quot;Source Han Sans SC&amp;quot;, &amp;quot;Noto Sans CJK SC&amp;quot;, &amp;quot;Myriad Pro&amp;quot;, &amp;quot;Hiragino Sans&amp;quot;, &amp;quot;Yu Gothic&amp;quot;, &amp;quot;Lucida Grande&amp;quot;, sans-serif; font-size: 14px; text-align: start; white-space-collapse: preserve; background-color: rgb(255, 255, 255);&quot;&gt;锁状态&lt;/span&gt;" style="whiteSpace=wrap;html=1;" parent="1" vertex="1">
          <mxGeometry x="-102.5" y="443.52941176470586" width="90" height="42.35294117647059" as="geometry" />
        </mxCell>
        <mxCell id="kBZi92GW0X4leDiOaX-m-28" value="&lt;span style=&quot;color: rgb(10, 10, 10); font-family: &amp;quot;Helvetica Neue&amp;quot;, BlinkMacSystemFont, &amp;quot;Segoe UI&amp;quot;, &amp;quot;PingFang SC&amp;quot;, Roboto, &amp;quot;Microsoft YaHei&amp;quot;, &amp;quot;Source Han Sans SC&amp;quot;, &amp;quot;Noto Sans CJK SC&amp;quot;, &amp;quot;Myriad Pro&amp;quot;, &amp;quot;Hiragino Sans&amp;quot;, &amp;quot;Yu Gothic&amp;quot;, &amp;quot;Lucida Grande&amp;quot;, sans-serif; font-size: 14px; text-align: start; white-space-collapse: preserve; background-color: rgb(255, 255, 255);&quot;&gt;分代年龄&lt;/span&gt;" style="whiteSpace=wrap;html=1;" parent="1" vertex="1">
          <mxGeometry x="2.5" y="443.52941176470586" width="90" height="42.35294117647059" as="geometry" />
        </mxCell>
        <mxCell id="94ZjhFRLN0g3IMUn2Bpj-15" value="JVM运行平台有特殊的规定，&lt;div&gt;对象在创建的时候，需要以8倍数为字节&lt;/div&gt;&lt;div&gt;不是8的倍数需要字节填充&lt;/div&gt;" style="text;html=1;align=center;verticalAlign=middle;resizable=0;points=[[0.5,1,0,0,0]];autosize=1;strokeColor=none;fillColor=none;" parent="1" vertex="1">
          <mxGeometry x="550" y="170" width="230" height="60" as="geometry" />
        </mxCell>
        <mxCell id="94ZjhFRLN0g3IMUn2Bpj-17" style="edgeStyle=orthogonalEdgeStyle;rounded=0;orthogonalLoop=1;jettySize=auto;html=1;entryX=0.5;entryY=1;entryDx=0;entryDy=0;entryPerimeter=0;" parent="1" source="kBZi92GW0X4leDiOaX-m-4" target="94ZjhFRLN0g3IMUn2Bpj-15" edge="1">
          <mxGeometry relative="1" as="geometry" />
        </mxCell>
        <mxCell id="94ZjhFRLN0g3IMUn2Bpj-20" value="" style="whiteSpace=wrap;html=1;" parent="1" vertex="1">
          <mxGeometry x="620" y="370" width="120" height="60" as="geometry" />
        </mxCell>
        <mxCell id="94ZjhFRLN0g3IMUn2Bpj-24" value="对齐填充字节的两个作用" style="text;html=1;align=center;verticalAlign=middle;resizable=0;points=[];autosize=1;strokeColor=none;fillColor=none;" parent="1" vertex="1">
          <mxGeometry x="680" y="280" width="160" height="30" as="geometry" />
        </mxCell>
      </root>
    </mxGraphModel>
  </diagram>
</mxfile>
